<?xml version="1.0" encoding="UTF-8"?>
<svg width="752" height="752" version="1.1" viewBox="0 0 752 752" xmlns="http://www.w3.org/2000/svg">
 <g>
  <path d="m376 518.07c-28.445 0.09375-56.258-8.3906-79.805-24.352-23.543-15.961-41.73-38.648-52.18-65.105l-8.7617 3.5039c15.066 37.75 44.668 67.863 82.152 83.578 37.48 15.719 79.707 15.719 117.19 0 37.484-15.715 67.086-45.828 82.152-83.578l-8.7617-3.5039c-10.449 26.457-28.637 49.145-52.184 65.105-23.547 15.961-51.359 24.445-79.805 24.352z"/>
  <path d="m376 508.61c26.539 0.074219 52.484-7.8516 74.449-22.746 21.969-14.895 38.934-36.066 48.684-60.746l-8.8086-3.5039v-0.003906c-12.238 30.684-36.289 55.16-66.75 67.938-30.461 12.773-64.777 12.773-95.238 0-30.465-12.777-54.516-37.254-66.75-67.938l-8.7148 3.5078c9.75 24.68 26.715 45.852 48.68 60.746 21.965 14.895 47.91 22.82 74.449 22.746z"/>
  <path d="m376 233.93c28.445-0.09375 56.258 8.3945 79.805 24.355 23.547 15.961 41.734 38.648 52.184 65.105l8.7617-3.5039c-15.066-37.75-44.668-67.863-82.152-83.582-37.484-15.715-79.711-15.715-117.19 0-37.484 15.719-67.086 45.832-82.152 83.582l8.7617 3.5039c10.449-26.457 28.637-49.145 52.18-65.105 23.547-15.961 51.359-24.449 79.805-24.355z"/>
  <path d="m376 243.4c-26.539-0.074219-52.484 7.8516-74.449 22.746-21.965 14.895-38.93 36.062-48.68 60.746l8.8086 3.5039c12.238-30.68 36.289-55.16 66.75-67.934 30.461-12.773 64.777-12.773 95.238 0 30.461 12.773 54.512 37.254 66.75 67.934l8.7148-3.5039c-9.75-24.684-26.715-45.852-48.684-60.746-21.965-14.895-47.91-22.82-74.449-22.746z"/>
  <path d="m500.88 375.01-34.902 24.957v-9.7578h-37.887v14.207l-49.723 0.003907v-14.211h-37.887v9.7539l-44.992-23.961 45.086-35.047v9.4727h37.887v-37.887h-37.887v16.105l-50.199 39.117v-10.703h-37.887v16.293l-37.508 22.684v-10.562h-37.887v37.887h37.887v-16.293l37.508-22.684v10.562h37.887v-11.035l50.105 26.758v17.426h37.887v-14.207h49.723v14.207h37.887v-16.527l34.902-24.91v8.2891h37.887v-37.887h-37.887zm-150.93-53.09h18.941v18.941h-18.941zm-144.44 91.969h-18.941v-18.941h18.941zm75.395-28.414h-18.941v-18.941h18.941zm87.992 33.152h-18.941l-0.003906-18.945h18.941zm87.613 0h-18.945v-18.945h18.941zm53.844-52.094h18.941v18.941h-18.941z"/>
 </g>
</svg>
