<?xml version="1.0" encoding="UTF-8"?>
<svg width="752" height="752" version="1.1" viewBox="0 0 752 752" xmlns="http://www.w3.org/2000/svg">
 <path d="m509.2 420.4c-5.4219 0.023437-10.832 0.53906-16.16 1.5469 5.1602-19.852 8.0078-40.234 8.4883-60.742h22.473c4.0859 0 7.3984-3.3125 7.3984-7.4023 0-4.0859-3.3125-7.3984-7.3984-7.3984h-22.363c14.617-10.902 24.699-26.812 28.32-44.688 2.6445-0.28516 5.2695-0.75 7.8516-1.3906 10.543 32.965 11.148 68.309 1.7305 101.61-0.53516 1.8906-0.29297 3.9102 0.66406 5.625 0.96094 1.7109 2.5586 2.9727 4.4492 3.5078 0.65234 0.18359 1.332 0.28125 2.0117 0.28125 3.3125-0.003906 6.2227-2.207 7.1172-5.3945 10.27-36.352 9.5273-74.93-2.1289-110.86 15.184-7.9336 26.188-22.059 30.168-38.719 3.9805-16.664 0.54297-34.238-9.418-48.176-9.9648-13.938-25.477-22.875-42.531-24.504-17.055-1.6289-33.977 4.207-46.398 16.008-31.113-23.406-68.676-36.672-107.59-37.996-2.4102-0.1875-4.8398-0.30469-7.2812-0.30469-23.703-0.015625-47.203 4.375-69.297 12.949-14.867-12.305-33.344-19.422-52.621-20.266-19.277-0.84766-38.309 4.6211-54.195 15.574-3.3633 2.3203-4.2148 6.9258-1.8945 10.293 2.3203 3.3672 6.9297 4.2148 10.293 1.8945 19.406-13.418 44.051-16.766 66.332-9.0078 22.281 7.7578 39.52 25.684 46.395 48.254 6.875 22.57 2.5625 47.062-11.609 65.926-0.050781-9.4688-3.1211-18.676-8.7656-26.277-5.6484-7.6055-13.574-13.207-22.625-15.988 6.293-7.168 9.5781-16.484 9.1641-26.012-0.41016-9.5273-4.4844-18.527-11.371-25.125-6.8867-6.5938-16.055-10.277-25.594-10.277-9.5352 0-18.703 3.6836-25.59 10.277-6.8867 6.5977-10.961 15.598-11.371 25.125-0.41406 9.5273 2.8711 18.844 9.1602 26.012-9.0508 2.7812-16.98 8.3789-22.629 15.984-5.6484 7.6016-8.7227 16.809-8.7734 26.281-9.3008-12.355-14.473-27.324-14.789-42.785-0.3125-15.461 4.2461-30.629 13.035-43.355 2.3203-3.3633 1.4727-7.9727-1.8945-10.293-3.3672-2.3203-7.9727-1.4688-10.293 1.8945-12.043 17.449-17.422 38.641-15.156 59.723 2.2656 21.078 12.023 40.645 27.5 55.137-7.582 29.98-7.7344 61.355-0.45312 91.406 0.95312 3.9766 4.9453 6.4258 8.9219 5.4727 1.9062-0.45703 3.5547-1.6523 4.582-3.3242 1.0273-1.6758 1.3477-3.6875 0.89062-5.5938-2.668-11.191-4.2461-22.613-4.7227-34.105h44.398c0.58984 30.457 6.5586 60.57 17.633 88.949-1.043-0.042969-2.0352-0.15234-3.0547-0.15234-9.3438 0.007812-18.598 1.7969-27.27 5.2656-7.2031-10.312-13.293-21.359-18.164-32.957-1.5781-3.7695-5.9141-5.5469-9.6836-3.9688-3.7695 1.5781-5.5469 5.9102-3.9688 9.6797 5.0273 11.973 11.25 23.406 18.57 34.129-20.57 13.461-33.105 36.266-33.449 60.848-0.34375 24.582 11.551 47.727 31.738 61.758s46.027 17.113 68.949 8.2227c22.922-8.8906 39.926-28.586 45.371-52.562 33.891 8.5938 69.5 7.5977 102.86-2.8789 5.9414 17.594 17.238 32.883 32.312 43.727 15.07 10.84 33.16 16.691 51.727 16.73 0.97656 0 1.9297-0.058594 2.8867-0.125l1.168-0.066407c1.9609-0.09375 3.8047-0.96094 5.125-2.4102 1.3242-1.4531 2.0117-3.3711 1.9219-5.332-0.25781-4.0469-3.6797-7.1641-7.7344-7.043l-1.4805 0.089844c-0.62891 0.042969-1.25 0.089843-1.8867 0.089843v-0.003906c-16.031-0.003906-31.621-5.25-44.398-14.938v-14.66c0-7.8477 3.1211-15.379 8.6719-20.93 5.5508-5.5508 13.078-8.668 20.93-8.668h29.598c7.8477 0 15.379 3.1172 20.93 8.668 5.5508 5.5508 8.668 13.082 8.668 20.93v14.535c-4.5664 3.5273-9.5352 6.5078-14.801 8.8789-3.75 1.6328-5.4648 6-3.832 9.75 1.6367 3.7539 6.0039 5.4688 9.7539 3.8359 25.133-10.957 43.793-32.91 50.562-59.48 6.7656-26.57 0.87891-54.777-15.949-76.422-16.828-21.645-42.715-34.301-70.133-34.293zm-32.824 6.3633c-11.328 4.5234-21.609 11.324-30.199 19.98-7.9844-2.4414-16.117-4.4414-24.367-6.0977 2.6719-18.27 4.4414-37.598 5.3281-56.895 0.09375-1.9648-0.59766-3.8867-1.9219-5.3398-1.3242-1.4531-3.1719-2.3203-5.1367-2.4102-4.0469-0.082031-7.4453 3.0234-7.7266 7.0625-0.78516 18.395-2.4961 36.738-5.125 54.965-25.621-3.7461-51.648-3.7812-77.277-0.097656-3.582-25.422-5.4648-51.055-5.6289-76.727h162.41c-0.51172 22.215-3.9922 44.266-10.352 65.559zm-107.03 104.48h-1.4805c-11.922-1.1406-26.578-29.531-35.52-78.672h0.003906c24.051-3.4375 48.473-3.4062 72.516 0.089843-9.2422 50.488-24.328 77.449-35.52 78.582zm43.844-184.84h-88.867c0.16406-25.719 2.0508-51.398 5.6445-76.867 12.797 1.8711 25.707 2.832 38.641 2.8711 5.1797 0 10.617-0.20703 16.434-0.59766v-0.003906c-2.9609 13.824-1.8828 28.211 3.1094 41.438 4.9922 13.227 13.684 24.738 25.039 33.16zm29.414-73.996c0-3.9258 1.5586-7.6914 4.3359-10.465 2.7734-2.7773 6.5391-4.3359 10.465-4.3359 3.9258 0 7.6875 1.5586 10.465 4.3359 2.7734 2.7734 4.3359 6.5391 4.3359 10.465s-1.5625 7.6875-4.3359 10.465c-2.7773 2.7734-6.5391 4.332-10.465 4.332-3.9258 0-7.6914-1.5586-10.465-4.332-2.7773-2.7773-4.3359-6.5391-4.3359-10.465zm0 29.598h29.602c3.9219 0 7.6875 1.5586 10.465 4.3359 2.7734 2.7734 4.332 6.5391 4.332 10.465v21.594-0.003907c-8.9805 5.2461-19.195 8.0078-29.598 8.0078-10.402 0-20.617-2.7617-29.598-8.0078v-21.59c0-3.9258 1.5586-7.6914 4.332-10.465 2.7773-2.7773 6.5391-4.3359 10.465-4.3359zm59.199 24.227v-9.4258c-0.019531-6.1289-1.9453-12.102-5.5078-17.086-3.5664-4.9883-8.5898-8.7422-14.383-10.746 4.0391-5.9609 5.7656-13.195 4.8516-20.336-0.91016-7.1445-4.3945-13.715-9.7969-18.473-5.4062-4.7617-12.359-7.3867-19.562-7.3867-7.2031 0-14.156 2.625-19.562 7.3867-5.4062 4.7578-8.8906 11.328-9.8008 18.473-0.91016 7.1406 0.81641 14.375 4.8555 20.336-5.793 2.0039-10.82 5.7578-14.383 10.746-3.5625 4.9844-5.4883 10.957-5.5078 17.086v9.4258c-10.102-11.453-15.387-26.367-14.746-41.629 0.63672-15.258 7.1445-29.68 18.168-40.25 11.023-10.57 25.703-16.473 40.977-16.473 15.273 0 29.953 5.9023 40.977 16.473 11.02 10.57 17.531 24.992 18.168 40.25 0.64062 15.262-4.6445 30.176-14.746 41.629zm-59.77-111.39c-10.105 2.1641-19.645 6.4375-27.992 12.535-3.6562-16.094-9.6055-31.582-17.668-45.98 17.898 6.9336 33.652 18.469 45.66 33.445zm104.17 66.449c-1.8477 1.0781-3.7734 2.0156-5.7578 2.8125-0.089844 0-0.18359 0-0.27344 0.042969-0.089843 0.042969-0.17187 0.11719-0.26562 0.15625-2.75 1.0508-5.5977 1.8203-8.5039 2.293-0.0625-7.3242-1.2109-14.598-3.4102-21.582h3.4102c3.9258 0 7.6914 1.5586 10.465 4.332 2.7773 2.7773 4.3359 6.5391 4.3359 10.465zm-22.199-31.078c-0.96875-0.007812-1.9336-0.14453-2.8633-0.40625-2.3516-4.0195-5.0781-7.8047-8.1406-11.309 0.24609-4.4336 3.1094-8.293 7.2812-9.8125 4.1758-1.5234 8.8516-0.41016 11.891 2.8281 3.0391 3.2383 3.8594 7.9727 2.082 12.043-1.7773 4.0703-5.8086 6.6875-10.25 6.6562zm0-51.797c11.113-0.015625 21.824 4.1445 30.016 11.656 8.1953 7.5078 13.266 17.82 14.219 28.891 0.95312 11.074-2.2891 22.098-9.0781 30.895-2.4844-6.8789-7.4336-12.594-13.891-16.035 4.1211-5.8867 5.6016-13.227 4.0898-20.254-1.5156-7.0234-5.8867-13.102-12.066-16.77-6.1797-3.668-13.609-4.5977-20.504-2.5625-6.8906 2.0352-12.625 6.8516-15.82 13.289-4.4922-3.3164-9.3477-6.1094-14.469-8.332 8.0742-12.941 22.254-20.797 37.504-20.777zm-49.91 12.75c-0.73828 1.1406-1.3672 2.3242-2.0117 3.5234l-0.003907-0.003906c-4.0898-0.80078-8.2422-1.2539-12.406-1.3516-5.8906-8.043-12.547-15.496-19.879-22.254 12.148 5.3906 23.652 12.129 34.301 20.086zm-72.516 27.652h-0.003906c-4.6367 5.3438-8.4844 11.324-11.426 17.758-7.9453 0.6875-14.879 1.0352-21.539 1.0352-12.133-0.035157-24.25-0.92578-36.258-2.6719 9.1367-50.102 24.219-78.723 36.258-78.723 9.4258 0 23.109 19.445 32.945 62.602zm-90.688-52.938c10.578-3.6562 21.48-6.2891 32.559-7.8672-7.2578 11.324-12.805 23.66-16.457 36.605-3.5234-10.5-8.9844-20.25-16.102-28.738zm0.96875 112.68c-1.3828 15.688-2.2188 31.82-2.375 47.855l-59.062-0.003906c0.13672-5.0781 0.42578-10.152 0.86719-15.23v0.003906c23.75-2.2891 45.574-14.051 60.551-32.629zm-69.043-100.14c5.8867 0 11.531 2.3359 15.695 6.5 4.1641 4.1641 6.5039 9.8086 6.5039 15.699 0 5.8867-2.3398 11.531-6.5039 15.695-4.1641 4.1641-9.8086 6.5039-15.695 6.5039-5.8906 0-11.535-2.3398-15.699-6.5039-4.1641-4.1641-6.5-9.8086-6.5-15.695 0-5.8906 2.3359-11.535 6.5-15.699 4.1641-4.1641 9.8086-6.5 15.699-6.5zm-14.801 59.199h29.598v-0.003906c7.8516 0 15.379 3.1211 20.93 8.6719 5.5508 5.5508 8.668 13.078 8.668 20.926v14.66c-12.77 9.6914-28.363 14.941-44.395 14.941-16.035 0-31.629-5.25-44.398-14.941v-14.66c0-7.8477 3.1172-15.375 8.668-20.926 5.5508-5.5508 13.078-8.6719 20.93-8.6719zm8.4219 73.672c-0.40625 5.0469-0.67578 10.09-0.8125 15.125l-44.355-0.003906c0.38672-9.7461 1.5742-19.445 3.5586-29 12.477 8.0625 26.789 12.836 41.609 13.875zm13.969 29.922h59.059c0.25781 26.52 2.2773 52.988 6.0352 79.242-14.836 2.9375-29.367 7.2461-43.414 12.859-0.49609-0.15625-1.0156-0.25-1.4805-0.39063h0.003906c-12.719-28.938-19.586-60.109-20.203-91.711zm-29.789 213.98v-21.594c0-3.9258 1.5586-7.6875 4.332-10.465 2.7773-2.7734 6.5391-4.3359 10.465-4.3359h29.602c3.9219 0 7.6875 1.5625 10.461 4.3359 2.7773 2.7773 4.3359 6.5391 4.3359 10.465v21.594c-8.9805 5.2422-19.195 8.0039-29.598 8.0039-10.402 0-20.617-2.7617-29.598-8.0039zm14.797-65.992c0-3.9258 1.5586-7.6875 4.3359-10.465 2.7734-2.7734 6.5391-4.332 10.465-4.332s7.6875 1.5586 10.465 4.332c2.7734 2.7773 4.3359 6.5391 4.3359 10.465 0 3.9258-1.5625 7.6914-4.3359 10.465-2.7773 2.7773-6.5391 4.3359-10.465 4.3359s-7.6914-1.5586-10.465-4.3359c-2.7773-2.7734-4.3359-6.5391-4.3359-10.465zm59.199 53.824v-9.4258c-0.019531-6.1289-1.9453-12.098-5.5078-17.086-3.5664-4.9844-8.5898-8.7422-14.383-10.742 4.0391-5.9648 5.7617-13.195 4.8516-20.34s-4.3945-13.711-9.7969-18.473c-5.4062-4.7578-12.359-7.3867-19.562-7.3867s-14.156 2.6289-19.562 7.3867c-5.4062 4.7617-8.8906 11.328-9.8008 18.473s0.81641 14.375 4.8555 20.34c-5.793 2-10.82 5.7578-14.383 10.742-3.5625 4.9883-5.4883 10.957-5.5078 17.086v9.4297c-10.102-11.457-15.387-26.371-14.75-41.629 0.64062-15.258 7.1484-29.684 18.172-40.254 11.023-10.57 25.703-16.473 40.977-16.473 15.273 0 29.953 5.9023 40.977 16.473 11.02 10.57 17.531 24.996 18.168 40.254 0.64063 15.258-4.6445 30.172-14.746 41.629zm-3.7656-100.8c8.8672-2.918 17.902-5.3125 27.051-7.1641 5.707 31.508 14.23 58.215 25.41 74.418v0.003907c-6.4609-0.94141-12.863-2.2383-19.18-3.8867 0-0.53906 0.082031-1.0586 0.082031-1.5977-0.015625-24.895-12.555-48.109-33.363-61.773zm103.33 67.168c11.246-16.281 19.66-43.066 25.254-74.16 5.5586 1.1289 11.047 2.4492 16.457 3.957-12.926 18.645-18.047 41.609-14.266 63.98-8.9688 2.7969-18.148 4.8789-27.445 6.2227zm115.03-20.195c-5.8867 0-11.535-2.3398-15.695-6.5-4.1641-4.1641-6.5039-9.8125-6.5039-15.699 0-5.8867 2.3398-11.531 6.5039-15.695 4.1602-4.1641 9.8086-6.5039 15.695-6.5039 5.8867 0 11.535 2.3398 15.699 6.5039 4.1602 4.1641 6.5 9.8086 6.5 15.695 0 5.8867-2.3398 11.535-6.5 15.699-4.1641 4.1602-9.8125 6.5-15.699 6.5zm59.199 44.078v0.003906c-0.078125-9.4453-3.1641-18.621-8.8047-26.195-5.6445-7.5742-13.551-13.152-22.578-15.934 6.293-7.1641 9.5742-16.484 9.1641-26.008-0.41406-9.5273-4.4883-18.527-11.375-25.125s-16.055-10.277-25.59-10.277c-9.5352 0-18.703 3.6797-25.59 10.277-6.8867 6.5977-10.961 15.598-11.375 25.125-0.41016 9.5234 2.8711 18.844 9.1641 26.008-9.0547 2.7812-16.984 8.3828-22.637 15.984-5.6484 7.6016-8.7227 16.812-8.7734 26.285-11.098-14.727-16.301-33.062-14.594-51.422 1.707-18.363 10.199-35.426 23.82-47.852 13.621-12.43 31.391-19.328 49.828-19.352 18.441-0.019531 36.223 6.8359 49.875 19.23 13.648 12.398 22.184 29.441 23.934 47.797 1.7539 18.355-3.4062 36.703-14.469 51.457z" fill="#fff"/>
</svg>
