<?xml version="1.0" encoding="UTF-8"?>
<svg width="752" height="752" version="1.1" viewBox="0 0 752 752" xmlns="http://www.w3.org/2000/svg">
 <g>
  <path d="m376 237.88c-21.773 0-39.465-17.695-39.465-39.465 0-21.773 17.695-39.465 39.465-39.465 21.773 0 39.465 17.695 39.465 39.465 0 21.77-17.691 39.465-39.465 39.465zm0-65.777c-14.535 0-26.309 11.773-26.309 26.309s11.773 26.309 26.309 26.309 26.309-11.773 26.309-26.309c0.003906-14.535-11.77-26.309-26.309-26.309z"/>
  <path d="m553.59 415.46c-21.773 0-39.465-17.695-39.465-39.465 0-21.773 17.695-39.465 39.465-39.465 21.773 0 39.465 17.695 39.465 39.465 0 21.773-17.691 39.465-39.465 39.465zm0-65.773c-14.535 0-26.309 11.773-26.309 26.309s11.773 26.309 26.309 26.309 26.309-11.773 26.309-26.309c0.003906-14.535-11.773-26.309-26.309-26.309z"/>
  <path d="m376 593.06c-21.773 0-39.465-17.695-39.465-39.465 0-21.773 17.695-39.465 39.465-39.465 21.773 0 39.465 17.695 39.465 39.465 0 21.773-17.691 39.465-39.465 39.465zm0-65.773c-14.535 0-26.309 11.773-26.309 26.309s11.773 26.309 26.309 26.309 26.309-11.773 26.309-26.309c0.003906-14.535-11.77-26.309-26.309-26.309z"/>
  <path d="m198.41 415.46c-21.773 0-39.465-17.695-39.465-39.465 0-21.773 17.695-39.465 39.465-39.465 21.773 0 39.465 17.695 39.465 39.465 0 21.773-17.695 39.465-39.465 39.465zm0-65.773c-14.535 0-26.309 11.773-26.309 26.309s11.773 26.309 26.309 26.309 26.309-11.773 26.309-26.309-11.773-26.309-26.309-26.309z"/>
  <path d="m553.59 349.69c-3.0898 0-5.8555-2.2383-6.4453-5.3945-12.824-69.262-70.184-126.62-139.44-139.44-3.5508-0.65625-5.918-4.0781-5.2617-7.6953 0.65625-3.5508 4.0781-5.918 7.6953-5.2617 74.457 13.812 136.16 75.512 149.97 149.97 0.65625 3.5508-1.7109 6.9727-5.2617 7.6953-0.46484 0.0625-0.85938 0.12891-1.2539 0.12891z"/>
  <path d="m408.89 560.17c-3.0898 0-5.8555-2.2383-6.4453-5.3945-0.65625-3.5508 1.7109-6.9727 5.2617-7.6953 69.262-12.824 126.62-70.184 139.44-139.44 0.65625-3.5508 4.0781-5.918 7.6953-5.2617 3.5508 0.65625 5.918 4.0781 5.2617 7.6953-13.812 74.457-75.512 136.16-149.97 149.97-0.45703 0.0625-0.85156 0.12891-1.2461 0.12891z"/>
  <path d="m343.11 560.17c-0.39453 0-0.78906-0.066406-1.1836-0.13281-74.457-13.812-136.16-75.512-149.97-149.97-0.65625-3.5508 1.7109-6.9727 5.2617-7.6953 3.5508-0.65625 6.9727 1.7109 7.6953 5.2617 12.824 69.262 70.184 126.62 139.44 139.44 3.5508 0.65625 5.918 4.0781 5.2617 7.6953-0.65234 3.1602-3.4141 5.3984-6.5078 5.3984z"/>
  <path d="m198.41 349.69c-0.39453 0-0.78906-0.066406-1.1836-0.13281-3.5508-0.65625-5.918-4.0781-5.2617-7.6953 13.812-74.457 75.512-136.16 149.97-149.97 3.5508-0.65625 6.9727 1.7109 7.6953 5.2617 0.65625 3.5508-1.7109 6.9727-5.2617 7.6953-69.262 12.824-126.62 70.184-139.44 139.44-0.66406 3.1602-3.4258 5.3984-6.5156 5.3984z"/>
  <path d="m356.27 481.24c-6.5781 0-12.891-2.4336-17.758-6.9062l-78.93-72.352c-10.723-9.8008-11.445-26.508-1.6445-37.164 9.8008-10.723 26.508-11.379 37.164-1.6445l57.555 52.75 100.96-134.64c8.6836-11.578 25.258-13.945 36.836-5.2617 5.6562 4.2109 9.2734 10.391 10.262 17.301 0.98828 6.9727-0.78906 13.879-5 19.535l-118.39 157.86c-4.4727 5.918-11.246 9.7344-18.613 10.391-0.85938 0.066406-1.6484 0.13281-2.4375 0.13281zm-78.93-111.82c-3.5508 0-7.1055 1.4453-9.7344 4.2734-4.8672 5.3281-4.5391 13.68 0.78906 18.613l78.93 72.352c2.7617 2.5 6.3789 3.75 10.129 3.4219 3.6836-0.32813 7.0391-2.2383 9.2734-5.1953l118.39-157.86c2.1055-2.8281 3.0273-6.25 2.5-9.7344s-2.3008-6.5781-5.1289-8.6836c-5.7891-4.3398-14.074-3.1562-18.418 2.6328l-105.24 140.36c-1.1172 1.5117-2.8281 2.4336-4.6719 2.6328-1.9062 0.13281-3.6836-0.46094-5.0664-1.7109l-62.883-57.617c-2.4961-2.3711-5.7188-3.4883-8.875-3.4883z"/>
 </g>
</svg>
