<?xml version="1.0" encoding="UTF-8"?>
<svg width="752" height="752" version="1.1" viewBox="0 0 752 752" xmlns="http://www.w3.org/2000/svg">
 <g>
  <path d="m408.16 475.45h7.2461l-19.273 18.09h-61.566l19.371-18.09h13.449v-9.4727h-17.191l-32.203 30.262v45.086h-19.324v9.4727h19.32v11.555h81.93l12.312-11.555h17.379v-9.4727h-7.3359l9.8047-9.4727v-65.875h-23.918zm-12.027 77.43h-68.668v-49.867h65.828v21.453h9.4727v-24.152l19.844-18.66-0.003907 46.363z"/>
  <path d="m393.29 531.48h9.4727v13.641h-9.4727z"/>
  <path d="m462.95 496.24v45.086h-22.918v9.4727h22.922v11.555h81.93l32.152-30.074v-66.301h-81.879zm78.188 56.828-68.715 0.003907v-50.059h65.828v21.453h9.4727v-24.152l19.844-18.66v46.363zm19.23-77.617-19.227 18.09h-61.566l19.559-18.09z"/>
  <path d="m538.25 531.48h9.4727v13.641h-9.4727z"/>
  <path d="m286.68 532.28v-66.301h-81.93l-32.391 30.262v66.301h81.93l12.312-11.555h21.453v-9.4727h-11.367zm-78.188-56.828h61.566l-19.227 18.09h-61.566zm42.242 77.43h-68.906v-49.867h65.828v21.453h9.4727v-24.152l19.891-18.66v46.363z"/>
  <path d="m247.85 531.48h9.4727v13.641h-9.4727z"/>
  <path d="m304.96 394.95h66.301v31.352h9.4727v-31.352h66.301v-50.152l15.438 15.438h34.289c1.8477 5.918 6.4766 10.555 12.391 12.418 5.9141 1.8633 12.367 0.71094 17.273-3.0781 4.9023-3.793 7.6445-9.7461 7.3359-15.938-0.3125-6.1914-3.6328-11.84-8.8906-15.125-5.2617-3.2812-11.793-3.7812-17.492-1.3398-5.6992 2.4414-9.8398 7.5195-11.094 13.59h-29.883l-19.367-19.32v-26.473h38.551c1.5469 6.0039 5.9375 10.867 11.754 13.023 5.8125 2.1562 12.312 1.332 17.402-2.2109 5.0938-3.5391 8.125-9.3477 8.125-15.551 0-6.1992-3.0312-12.008-8.125-15.547-5.0898-3.543-11.59-4.3672-17.402-2.2109-5.8164 2.1562-10.207 7.0195-11.754 13.023h-38.551v-23.68h17.902l27.371-27.371h16.008c1.5508 6.0039 5.9414 10.867 11.754 13.023s12.316 1.332 17.406-2.2109c5.0898-3.5391 8.125-9.3477 8.125-15.551 0-6.1992-3.0352-12.008-8.125-15.547-5.0898-3.543-11.594-4.3672-17.406-2.2109s-10.203 7.0195-11.754 13.023h-19.938l-27.137 27.375h-14.207v-73.172h-142.07v73.172h-12.078l-27.371-27.371-19.938-0.003906c-1.5508-6.0039-5.9414-10.867-11.754-13.023-5.8164-2.1562-12.316-1.332-17.406 2.2109-5.0898 3.5391-8.125 9.3477-8.125 15.547 0 6.2031 3.0352 12.012 8.125 15.551 5.0898 3.543 11.59 4.3672 17.406 2.2109 5.8125-2.1562 10.203-7.0195 11.754-13.023h16.008l27.371 27.371h16.008v23.68h-36.656c-1.5508-6.0039-5.9414-10.867-11.754-13.023s-12.316-1.332-17.406 2.2109c-5.0898 3.5391-8.125 9.3477-8.125 15.547 0 6.2031 3.0352 12.012 8.125 15.551 5.0898 3.543 11.594 4.3672 17.406 2.2109s10.203-7.0195 11.754-13.023h36.656v28.414l-17.477 17.477h-29.883c-1.2188-6.0781-5.3359-11.176-11.023-13.648-5.6875-2.4688-12.223-2-17.5 1.2578-5.2734 3.2539-8.6211 8.8867-8.9648 15.078-0.33984 6.1914 2.3711 12.156 7.2578 15.973 4.8867 3.8125 11.332 4.9961 17.254 3.1641 5.9258-1.832 10.578-6.4453 12.457-12.355h34.336l13.543-13.637zm209.84-49.727c3.832 0 7.2852 2.3086 8.75 5.8477 1.4648 3.5391 0.65625 7.6133-2.0547 10.32-2.707 2.7109-6.7812 3.5195-10.32 2.0547-3.5391-1.4648-5.8477-4.9219-5.8477-8.75 0-5.2305 4.2422-9.4727 9.4727-9.4727zm-10.941-54.461c3.832 0 7.2852 2.3086 8.75 5.8477 1.4688 3.5391 0.65625 7.6133-2.0508 10.32-2.7109 2.7109-6.7852 3.5195-10.324 2.0547-3.5391-1.4688-5.8438-4.9219-5.8438-8.7539 0-5.2305 4.2383-9.4688 9.4688-9.4688zm22.684-60.523h0.003907c3.8281 0 7.2812 2.3047 8.75 5.8477 1.4648 3.5391 0.65625 7.6133-2.0547 10.32-2.707 2.707-6.7812 3.5195-10.32 2.0547-3.5391-1.4688-5.8477-4.9219-5.8477-8.7539 0-5.2305 4.2383-9.4688 9.4727-9.4688zm-299.25 18.941c-3.832 0-7.2852-2.3086-8.75-5.8477s-0.65625-7.6133 2.0508-10.32c2.7109-2.7109 6.7852-3.5195 10.324-2.0547 3.5391 1.4688 5.8477 4.9219 5.8477 8.75 0 2.5156-1 4.9219-2.7734 6.6992-1.7773 1.7773-4.1875 2.7734-6.6992 2.7734zm22.73 60.523c-3.8281 0-7.2812-2.3086-8.75-5.8477-1.4648-3.5391-0.65625-7.6133 2.0547-10.32 2.707-2.7109 6.7812-3.5195 10.32-2.0547 3.5391 1.4688 5.8477 4.9219 5.8477 8.75 0 2.5156-0.99609 4.9219-2.7734 6.6992-1.7773 1.7773-4.1875 2.7734-6.6992 2.7734zm-10.938 54.461c-3.832 0-7.2852-2.3047-8.75-5.8438-1.4688-3.5391-0.65625-7.6133 2.0508-10.324 2.7109-2.707 6.7852-3.5195 10.324-2.0508 3.5391 1.4648 5.8477 4.918 5.8477 8.75 0 2.5117-1 4.9219-2.7773 6.6953-1.7734 1.7773-4.1836 2.7734-6.6953 2.7734zm75.348-165.52h123.13v16.34h-123.13zm123.13 25.812v161.02h-123.13v-48.258l0.47266-0.47266-0.47266-0.52344v-111.76z"/>
  <path d="m371.27 441.31h9.4727v19.039h-9.4727z"/>
  <path d="m366.53 252.87h56.828v9.4727h-56.828z"/>
  <path d="m366.53 295.49h56.828v9.4727h-56.828z"/>
  <path d="m366.53 338.11h56.828v9.4727h-56.828z"/>
  <path d="m328.64 248.13h18.941v18.941h-18.941z"/>
  <path d="m328.64 290.76h18.941v18.941h-18.941z"/>
  <path d="m328.64 333.38h18.941v18.941h-18.941z"/>
 </g>
</svg>
