<?xml version="1.0" encoding="UTF-8"?>
<svg width="752" height="752" version="1.1" viewBox="0 0 752 752" xmlns="http://www.w3.org/2000/svg">
 <path d="m511.04 154.29c-5.8008 0-10.754 3.7656-12.652 8.9453h-45.684v-0.003906c-2.6172 0.003906-4.7344 2.1211-4.7344 4.7383v63.777l-67.336-39.023v-9.1758c5.1055-1.9375 8.7969-6.8633 8.7969-12.605 0-7.4062-6.1055-13.516-13.516-13.516-7.4062 0-13.516 6.1055-13.516 13.516 0 5.7305 3.6758 10.641 8.7578 12.59v9.8242l-67.117 38.609v-63.75l0.003906-0.007813c0-2.6133-2.1211-4.7344-4.7344-4.7344h-45.691c-1.9023-5.1758-6.8477-8.9336-12.645-8.9336-7.4062 0-13.516 6.1055-13.516 13.516 0 7.4062 6.1055 13.504 13.516 13.504 5.6797 0 10.57-3.5977 12.551-8.6133h41.051v64.461l-76.523 44.02c-1.4727 0.83984-2.3828 2.4023-2.3867 4.0977l-0.27734 180.03v-0.003906c0 1.6836 0.89453 3.2383 2.3477 4.0898l76.836 44.527v64.895h-41.051c-1.9844-5.0117-6.8711-8.6133-12.551-8.6133-7.4062 0-13.516 6.0977-13.516 13.504s6.1055 13.516 13.516 13.516c5.7969 0 10.742-3.7617 12.645-8.9336h45.695c2.6133 0 4.7344-2.1211 4.7344-4.7383v-64.145l67.117 38.895v9.9258c-5.0898 1.9453-8.7695 6.8633-8.7695 12.598 0 7.4062 6.1055 13.516 13.516 13.516 7.4062 0 13.516-6.1055 13.516-13.516 0-5.7422-3.6875-10.656-8.7891-12.598v-9.9531l67.336-38.738v64.258c0 2.6133 2.1172 4.7344 4.7344 4.7344h45.684c1.8984 5.1797 6.8555 8.9453 12.652 8.9453 7.4062 0 13.516-6.1055 13.516-13.516 0-7.4062-6.1055-13.516-13.516-13.516-5.6758 0-10.559 3.6016-12.543 8.6133h-41.059v-64.969l76.836-44.195 0.003907 0.003907c1.4648-0.84375 2.3672-2.4023 2.375-4.0898l0.27734-180.03c0-1.6836-0.89453-3.2383-2.3477-4.0859l-77.141-44.703v-64.527h41.059c1.9844 5.0117 6.8672 8.6133 12.543 8.6133 7.4062 0 13.516-6.1055 13.516-13.516 0-7.4062-6.1055-13.516-13.516-13.516zm0 9.4727c2.2891 0 4.043 1.7539 4.043 4.043 0 2.2891-1.7539 4.043-4.043 4.043-2.2891 0-4.043-1.7539-4.043-4.043 0-2.2891 1.7539-4.043 4.043-4.043zm-270.07 0.25c2.2891 0 4.043 1.7539 4.043 4.043 0 2.2891-1.7539 4.0312-4.043 4.0312-2.2891 0-4.043-1.7461-4.043-4.0312 0-2.2891 1.7539-4.043 4.043-4.043zm134.94 2.8867c2.2891 0 4.043 1.7539 4.043 4.043 0 2.2891-1.7539 4.043-4.043 4.043s-4.043-1.7539-4.043-4.043c0-2.2891 1.7539-4.043 4.043-4.043zm0.52734 34.336 151.02 87.52-0.27734 174.56-149.55 86.023h-3.4883l-149.29-86.512 0.27734-174.56zm-0.23047 80.508v-0.003907c-0.13281-0.003906-0.26172 0-0.39453 0.007813h-82.527-0.046875c-0.25 0.003906-0.5 0.023437-0.74609 0.066406-0.11719 0.019531-0.23047 0.046875-0.34375 0.074219-0.074219 0.019531-0.14844 0.042969-0.22266 0.066406-0.050781 0.011719-0.10547 0.027344-0.15625 0.042969-0.015625 0.007812-0.03125 0.015625-0.046875 0.019531-0.23438 0.082031-0.46484 0.17969-0.68359 0.29688-0.015625 0.007812-0.03125 0.019531-0.046875 0.027344-0.10156 0.054687-0.19922 0.11328-0.29688 0.17578-0.011718 0.007813-0.023437 0.019531-0.035156 0.027344-0.17578 0.11328-0.34375 0.23828-0.5 0.37109-0.44531 0.39453-0.8125 0.86719-1.082 1.3984-0.011719 0.015625-0.019531 0.035156-0.027344 0.054688-0.039063 0.070312-0.078125 0.14453-0.11328 0.22266l-23.566 47.137v-0.003906c-0.76172 1.5273-0.64453 3.3398 0.30469 4.7539l106.55 158.57c0.87891 1.3125 2.3555 2.0977 3.9297 2.0977 1.5781 0 3.0547-0.78516 3.9336-2.0977l106.55-158.57c0.94531-1.4141 1.0586-3.2305 0.29688-4.7539l-23.66-47.34c-0.003906-0.003906-0.007812-0.011718-0.011719-0.015624-0.054687-0.10938-0.11328-0.21875-0.17578-0.32422-0.003906-0.011719-0.011719-0.019531-0.015625-0.027344-0.066406-0.10547-0.13281-0.20703-0.20312-0.30469-0.007812-0.007813-0.015625-0.015626-0.019531-0.019532-0.074219-0.10156-0.15234-0.19922-0.23047-0.29688-0.09375-0.10547-0.1875-0.20703-0.28906-0.30469-0.058594-0.058594-0.12109-0.11719-0.18359-0.17578-0.039063-0.03125-0.074219-0.0625-0.11328-0.09375-0.066406-0.054687-0.13281-0.10547-0.20312-0.15625-0.039063-0.027343-0.078126-0.054687-0.11719-0.082031-0.007812-0.003906-0.015625-0.007812-0.019531-0.011719-0.10156-0.070312-0.20703-0.14062-0.31641-0.20312-0.015624-0.007813-0.03125-0.019532-0.046874-0.027344-0.78516-0.4375-1.6797-0.64453-2.5781-0.59375h-82.348c-0.070312-0.003906-0.13672-0.007813-0.20703-0.007813zm-72.48 9.4805h61.98l-30.996 35.418zm82.875 0h61.98l-30.996 35.418zm-10.453 2.4609 31.004 35.426h-62zm-81.793 1.2305 29.922 34.195h-47.016zm163.6 0 17.094 34.195h-47.016zm-179.46 43.668h52.566l33.457 128zm62.359 0h70.602l-35.305 135.09zm80.398 0h52.566l-86.023 128.02zm-45.352 238.45c2.2891 0 4.043 1.7539 4.043 4.043 0 2.2891-1.7539 4.043-4.043 4.043-2.2891 0-4.043-1.7539-4.043-4.043 0-2.2891 1.7539-4.043 4.043-4.043zm-134.93 2.8945c2.2891 0 4.043 1.7461 4.043 4.0312 0 2.2891-1.7539 4.043-4.043 4.043-2.2891 0-4.043-1.7539-4.043-4.043s1.7539-4.0312 4.043-4.0312zm270.07 0.24219c2.2891 0 4.043 1.7539 4.043 4.043 0 2.2891-1.7539 4.043-4.043 4.043s-4.043-1.7539-4.043-4.043c0-2.2891 1.7539-4.043 4.043-4.043z"/>
</svg>
