<?xml version="1.0" encoding="UTF-8"?>
<svg width="752" height="752" version="1.1" viewBox="0 0 752 752" xmlns="http://www.w3.org/2000/svg">
 <g>
  <path d="m546.2 361.2c0-20.441-16.559-37-37-37-20.441 0-37 16.559-37 37 0 17.574 12.395 32.742 29.598 36.258v8.1406h-14.801v14.801h14.801v14.801h14.801v-14.801h14.801v-14.801h-14.801v-8.1406c17.207-3.5156 29.602-18.684 29.602-36.258zm-37 22.199c-12.301 0-22.199-9.8984-22.199-22.199s9.8984-22.199 22.199-22.199c12.301 0 22.199 9.8984 22.199 22.199 0 12.207-9.9883 22.199-22.199 22.199z"/>
  <path d="m302 413h-44.398v14.801h26.547l-20.996 20.902c-17.02-11.285-40.051-6.5664-51.336 10.453-11.285 17.02-6.5664 40.051 10.453 51.336 17.02 11.285 40.051 6.5664 51.336-10.453 8.2305-12.395 8.2305-28.488 0-40.883l20.902-20.902v26.543h14.801v-44.398c0.089844-4.0703-3.2383-7.3984-7.3086-7.3984zm-59.195 88.797c-12.301 0-22.199-9.8984-22.199-22.199 0-12.301 9.8984-22.199 22.199-22.199 12.301 0 22.199 9.8984 22.199 22.199 0 12.211-9.9922 22.199-22.199 22.199z"/>
  <path d="m597.71 455.55-56.332-212.93 29.598-8.2305c19.703-5.457 31.172-25.898 25.715-45.602-1.1094-3.9766-5.1797-6.1953-9.1562-5.1797l-188.41 52.539c-0.27734-0.27734-0.64844-0.46094-0.92578-0.73828v-32.285c10.82-12.301 9.6211-30.984-2.5898-41.809-12.301-10.82-30.984-9.6211-41.809 2.5898-9.8984 11.191-9.8984 27.934 0 39.125v32.375c-5.7344 4.2539-10.082 10.176-12.578 16.836l-181.39 50.594c-3.9766 1.1094-6.1953 5.1797-5.1797 9.1562 4.5352 15.91 19.055 27.012 35.707 27.012 3.4219 0 6.7539-0.46094 9.9883-1.3867l2.4062-0.64844-48.562 200.07c-0.18359 0.55469-0.18359 1.1094-0.18359 1.7578 0 20.441 16.559 37 37 37h103.6c2.5898 0 5.2734-0.27734 7.8633-0.83203-0.27734 1.8516-0.46094 3.6992-0.46094 5.5508l-0.007813 10.078c0 4.0703 3.3281 7.3984 7.3984 7.3984h133.2c4.0703 0 7.3984-3.3281 7.3984-7.3984v-10.082c0-14.801-8.7891-28.211-22.383-34.039l-15.91-6.8438c-8.1406-3.5156-13.504-11.562-13.41-20.441v-224.58c5.2734-3.9766 9.4336-9.3438 12.023-15.445l57.07-15.91-46.617 192.39c-0.18359 0.55469-0.18359 1.1094-0.18359 1.7578 0 20.441 16.559 37 37 37h103.6c20.441 0 37-16.559 37-37-0.19141-0.64844-0.28516-1.2969-0.46875-1.8516zm-221.71-286.74c8.1406 0 14.801 6.6602 14.801 14.801s-6.6602 14.801-14.801 14.801-14.801-6.6602-14.801-14.801c0.003906-8.1406 6.6641-14.801 14.801-14.801zm7.4023 43.473v16.465c-4.9023-1.0156-9.8984-1.0156-14.801 0v-16.465c4.8086 1.2031 9.9883 1.2031 14.801 0zm-44.215 55.961c0.46094 4.9961 1.8516 9.8047 4.2539 14.152l-73.906 20.625-3.793-14.336zm-112.11 31.172 24.328-6.7539 3.793 14.336-32.098 8.9727zm-30.707 23.957c-9.0664 2.4961-18.777-0.92578-24.141-8.6016l38.57-10.73-4.0703 16.465zm98.23 237.62h-103.6c-9.4336 0-17.758-5.918-20.902-14.801h145.5c-3.2383 8.8828-11.562 14.801-20.996 14.801zm6.75-79.547 13.227 49.949h-143.74l48.281-198.96 39.957-11.098 21.09 79.641 14.336-3.793-21.09-79.824 80.562-22.477v224.39c0 8.8789-5.2734 16.926-13.41 20.441l-9.0664 3.8867c0.18359-1.5742 0.27734-3.1445 0.27734-4.8086 0-0.64844-0.09375-1.2969-0.27734-1.8516l-15.633-59.199zm104.43 71.871 15.91 6.8438c8.1406 3.5156 13.504 11.562 13.41 20.441v2.6836h-118.3v-2.6836c0-8.8789 5.2734-16.926 13.41-20.441l15.91-6.8438c9.5273-4.0703 16.926-12.023 20.348-21.922h18.961c3.4258 9.8047 10.824 17.762 20.352 21.922zm-22.383-51.52v14.801h-14.801v-14.801zm-14.801-14.801v-185.73c4.9023 1.0156 9.8984 1.0156 14.801 0v185.73zm7.3984-199.79c-12.301 0-22.199-9.8984-22.199-22.199 0-12.301 9.8984-22.199 22.199-22.199s22.199 9.8984 22.199 22.199c0 12.211-9.9883 22.199-22.199 22.199zm207.19-86.945c-0.64844 9.3438-7.1211 17.391-16.188 19.887l-29.414 8.2305-3.793-14.336zm-91.664 25.531 28.027-7.7695 3.793 14.336-35.797 9.9883zm-78.621 37.273c-0.27734-4.9961-1.5742-9.8047-3.6992-14.336l66.043-18.406-3.9766 16.465zm70.668-4.3477 43.566-12.117 53.832 203.4h-143.74zm77.418 220.88h-103.59c-9.4336 0-17.758-5.918-20.902-14.801h145.5c-3.2383 8.8789-11.562 14.801-21 14.801z"/>
 </g>
</svg>
