<?xml version="1.0" encoding="UTF-8"?>
<svg width="752" height="752" version="1.1" viewBox="0 0 752 752" xmlns="http://www.w3.org/2000/svg">
 <g fill="#fff">
  <path d="m358.65 144.11c-1.7227 0.17969-7.0781 0.81641-11.801 1.3594-23.777 2.7227-62.625 14.43-69.617 20.875-2.9023 2.8125-2.8125 7.4414 0.17969 10.348 2.8125 2.9023 6.082 2.9023 12.617 0 8.625-3.8125 23.145-8.625 34.492-11.438 18.242-4.4453 29.77-5.7148 51.375-5.7148 18.152 0 24.324 0.45313 40.027 3.1758l5.9922 1.0898 0.54297 5.625c0.63281 6.8984 2.9922 13.16 7.8945 21.422l3.8125 6.2617-1 12.16c-1 12.16-3.5391 23.145-5.8047 24.777-0.54297 0.45312-3.7227 1.3594-6.8984 1.9023-15.883 2.8125-35.035 16.609-41.57 29.953-2.1797 4.3555-2.543 6.3555-2.543 12.438 0 6.4453 0.26953 7.8047 2.8125 12.25 5.1719 9.0781 11.797 21.148 17.242 31.223 11.617 21.422 22.238 27.59 34.672 19.875 6.4453-3.9922 11.617-11.164 21.965-30.77 5.1719-9.8047 10.164-18.695 10.891-19.695 2.2695-2.7227 6.7148-1.2695 11.801 3.8125 3.1758 3.1758 5.9023 7.7148 10.801 17.699 6.9883 14.25 11.98 20.875 17.789 23.598 8.625 4.082 29.68 3.6328 54.277-1.2695 13.07-2.6328 31.043-7.8945 36.484-10.707 6.2617-3.1758 6.3555-6.4453 0.82031-22.785-4.6328-13.887-13.07-32.133-20.965-45.293-15.52-26.141-41.117-53.457-66.617-71.16-16.883-11.707-41.75-24.598-47.742-24.688-5.2656 0-8.7148 5.3555-6.5352 10.438 0.82031 2.1797 3.6328 3.9023 15.703 9.8047 48.559 23.789 85.676 62.816 106.1 111.74 5.5352 13.25 7.3555 19.062 6.3555 20.062-1.4531 1.4531-18.969 6.1719-29.77 8.0781-13.07 2.3594-30.402 3.8125-36.035 3.0859-6.8047-0.91016-8.8945-3.2695-16.52-18.785-10.711-21.785-19.062-29.41-33.035-30.312-5.2656-0.36328-6.4453-0.17969-9.2578 1.7227-4.8125 3.2695-8.8047 9.168-17.973 26.777-8.8945 16.973-13.43 24.055-16.609 25.688-1.6328 0.91016-2.2695 0.63281-5.1719-2.4531-1.8125-1.9023-5.9922-8.4375-9.168-14.34-3.1758-5.9922-8.3477-15.43-11.527-20.965-3.3594-5.7148-5.8047-11.164-5.8047-12.617 0-4.1758 3.7227-10.438 9.0781-15.16 6.082-5.4453 17.52-11.348 23.328-12.07 8.3477-1 10.891-2.1797 14.703-6.4453 6.5352-7.4414 10.074-21.422 10.348-41.027l0.17969-11.527-4.7227-8.168c-5.8047-10.168-6.8984-14.16-6.082-22.145 0.54297-5.625 0.36328-6.3555-1.543-8.5273-2.3594-2.7227-10.711-4.9023-28.5-7.5352-8.7188-1.2773-42.848-2.457-49.473-1.6406z"/>
  <path d="m225.95 175.88c-17.242 4.1758-31.133 18.426-34.855 35.672-2.4492 11.801-1.2695 22.508 2.8125 24.055 2.8125 1.0898 6.625 0.54297 8.7148-1.1797 1.9102-1.543 2.1797-2.7227 2.7227-11.254 1-15.34 6.2656-24.145 17.883-29.859 5.3555-2.6328 6.8945-2.9922 13.34-2.9922 5.9023 0.089844 8.2578 0.45312 12.438 2.4492 9.8945 4.625 16.43 13.43 18.062 24.508 0.45313 3.1758 0.82031 54.641 0.82031 115.81 0 103.65 0.089844 110.1 1.6328 111.46 0.82031 0.72266 4.625 3.3594 8.3477 5.7148 13.07 8.3477 21.691 17.973 28.227 31.492 5.625 11.527 7.3516 19.605 7.3516 33.492 0 14.16-1.8125 22.148-7.8047 34.492-9.4375 19.242-26.59 33.492-48.195 40.027-7.0781 2.1797-9.8047 2.4531-20.422 2.543-12.797 0-18.605-1-29.043-5.082-18.875-7.4453-35.852-24.508-43.477-43.477-5.625-14.16-6.8945-32.402-3.1758-47.105 2-7.8945 7.5352-19.695 12.527-26.777 5.082-7.0781 14.977-16.25 21.965-20.332 10.074-5.9023 9.4375-4.1719 9.4375-24.777v-17.973h5.4453c4.625 0 5.9023-0.36328 7.7148-2.2695 2.7227-2.7227 2.9922-7.5352 0.54297-10.527-1.3594-1.7227-2.7227-2.1797-7.7148-2.4492l-5.9922-0.36328v-30.5l5.9922-0.36328c4.9922-0.26953 6.3555-0.72266 7.7148-2.4492 2.4531-2.9961 2.1797-7.8047-0.54297-10.527-1.8125-1.9023-3.0859-2.2695-7.7148-2.2695h-5.4453v-15.43l-0.003907-15.434h4.625c7.0781 0 10.711-2.6328 10.801-7.8047 0-4.9023-2.6328-7.0781-9.2578-7.625l-5.7148-0.45312-0.26953-15.16-0.17969-15.16 20.785-0.27344c20.605-0.26953 20.875-0.26953 23.145-2.4492 3.2695-3.0859 3.2695-7.9883 0-11.074l-2.3594-2.1797-24.324-0.26953c-26.867-0.27344-30.043 0.17969-31.77 4.8125-0.54297 1.543-0.91016 34.215-0.91016 90.312v87.859l-6.9883 4.9922c-18.152 12.707-31.223 32.039-36.848 54.188-2.7227 10.98-2.7227 31.68 0 42.66 10.164 40.391 44.199 68.891 85.137 71.43 44.203 2.6328 83.957-26.59 95.484-70.34 1.9922-7.625 2.3594-10.711 2.3594-22.418 0-11.707-0.36328-14.793-2.3594-22.418-2.7227-10.164-7.8047-21.602-13.34-29.859-4.9922-7.3516-17.973-20.242-24.688-24.414l-5.1719-3.1758-0.53906-222.38-2.0898-5.9922c-7.8164-23.152-31.777-36.762-54.832-31.137z"/>
  <path d="m303.74 318.01c-2.9023 1.543-4.082 3.5391-4.082 7.1719 0 2.7227 0.54297 3.8125 2.7227 5.5352 11.434 8.8008 11.344 8.6211 11.25 24.777-0.17969 15.16-1.3633 20.422-6.9883 31.77-5.8125 11.617-7.2617 16.793-6.8047 23.598 0.72266 12.25 8.8047 19.422 28.953 25.867 13.16 4.1719 15.883 5.9023 16.793 10.617 0.91016 4.8125-0.26953 8.5273-4.3555 13.887-4.7227 6.2617-5.082 9.9844-1.1797 13.34 3.8125 3.3594 8.0781 2.4492 12.527-2.6328 5.1719-5.9922 8.0781-12.527 8.625-19.695 0.54297-8.7148-1.4531-14.43-7.4453-20.605-4.3555-4.4453-5.2656-4.9023-15.52-8.0781-12.527-3.9023-20.605-7.8047-22.238-10.891-1.7227-3.1758-0.63281-7.8945 4.1758-17.699 6.1641-12.699 7.5234-17.332 8.6133-29.398 2.0898-22.145-0.36328-32.582-9.7148-41.387-4.5352-4.3555-9.6172-7.2617-12.34-7.2617-0.63281-0.003906-2 0.54297-2.9922 1.0859z"/>
  <path d="m594.45 338.25c-1.3633 0.81641-2.8125 2.4492-3.0859 3.6328-0.27344 1.2695-0.089843 8.625 0.54297 16.43 4.9961 61.625-16.512 122.25-59.172 167-39.395 41.207-91.762 64.805-149.13 67.164-20.516 0.91016-44.84-1.8125-57.543-6.3555-4.4453-1.6328-6.8047-1.2695-9.8047 1.543-2.7227 2.4492-2.7227 7.0781 0 10.074 4.3555 4.9023 26.777 9.3477 51.918 10.258 65.535 2.2695 128.07-23.055 174.27-70.613 17.789-18.332 31.133-37.305 42.297-60.082 16.793-34.402 24.598-70.977 23.145-109.1-0.63672-18.793-1.7266-26.508-3.9023-28.688-2.3594-2.3555-6.625-2.9023-9.5352-1.2656z"/>
  <path d="m502.05 377.37c-2.0898 0.45312-25.414 5.9023-32.766 7.7148-4.7227 1.1797-10.527 5.9922-17.52 14.43-3.3594 4.082-6.7148 7.625-7.4414 7.8945-0.73047 0.26953-3.6328-0.17969-6.4453-1.0898-13.617-4.2656-27.867 2.3594-29.133 13.617-1 9.0781 2.1797 12.707 18.695 21.422 14.16 7.3555 23.867 13.43 27.867 17.242 11.348 10.801 36.035 9.0781 49.555-3.4492 4.4453-4.1719 6.2617-6.8047 9.8945-14.43 3.9922-8.4375 5.5352-10.438 14.43-19.695 10.258-10.617 13.617-15.793 13.707-21.332 0-7.2617-6.625-15.703-15.609-19.695-4.7227-2.1797-7.1719-2.6328-14.34-2.8125-4.7227-0.09375-9.625 0.003906-10.895 0.18359zm16.52 15.793c3.5391 1 8.8945 4.9023 8.8945 6.5352 0 0.45312-4.2656 5.2656-9.5273 10.711-10.164 10.527-14.34 16.43-17.609 24.688-3.3594 8.3477-9.9844 13.43-19.332 14.793-6.9883 1.0898-11.98-0.089844-16.34-3.8125-6.082-5.082-14.613-10.438-28.41-17.609l-12.707-6.625 3.0859-0.91016c2.2695-0.63281 4.1719-0.45312 8.0781 0.91016 10.438 3.5391 17.152 1.0898 26.23-9.4375 8.2578-9.5273 11.98-12.887 14.25-12.887 1.1797 0 6.1719-1.0898 11.074-2.3594 18.152-4.9062 25.688-5.8164 32.312-3.9961z"/>
  <path d="m270.25 509.61c-1.543 1.543-2.3594 3.9023-3.0859 8.625-2.3594 15.883-11.527 24.961-28.047 27.867-7.9883 1.3594-10.258 3.1758-10.258 8.168 0 3.6328 4.2656 7.7148 8.0781 7.7148 9.2578 0 22.598-5.1758 30.223-11.801 8.9844-7.8047 15.156-20.875 15.52-32.672 0.17969-5.082 0-5.8125-2.3594-7.8047-3.2656-2.8203-7.3477-2.8203-10.07-0.097657z"/>
  <path d="m376.44 508.98c-13.527 4.9023-25.957 24.145-23.234 35.852 3.7227 15.793 28.227 21.605 43.66 10.438 5.7148-4.2656 7.625-8.4375 7.625-16.883-0.089843-5.625-0.54297-7.8047-2.8125-12.707-1.543-3.2695-4.5352-8.0781-6.625-10.711-5.7227-7.1641-10.898-8.8008-18.613-5.9883zm9.168 19.609c3.0859 5.2656 4.3555 9.7148 3.4492 12.438-0.63281 1.9922-6.5352 4.625-10.438 4.625-3.3594 0-9.7148-2.4531-10.258-4.0859-1.3633-3.3594 9.4375-17.699 13.25-17.699 0.63672 0 2.4531 2.1797 3.9961 4.7227z"/>
 </g>
</svg>
