<?xml version="1.0" encoding="UTF-8"?>
<svg width="752" height="752" version="1.1" viewBox="0 0 752 752" xmlns="http://www.w3.org/2000/svg">
 <g>
  <path d="m560.99 279.8h-14.797v-7.3984c9.5898-0.027344 18.797-3.7773 25.68-10.461 6.8789-6.6797 10.895-15.773 11.199-25.363v-0.33984c0-0.28125 0.082031-0.54688 0.082031-0.83594v-36.996c-0.011719-11.773-4.6914-23.059-13.016-31.383-8.3242-8.3242-19.609-13.004-31.383-13.016h-39.922c-9.3164-0.015625-18.402 2.9102-25.965 8.3594-7.5625 5.4453-13.215 13.137-16.152 21.977-2.2461 6.6914-1.1289 14.051 3 19.773 4.125 5.7227 10.758 9.1055 17.812 9.0859h72.363l18.277 24.367c-0.52344 5.4727-3.0664 10.551-7.1289 14.254-4.0586 3.7031-9.3516 5.7617-14.848 5.7773h-44.398c-5.8867 0-11.535-2.3398-15.699-6.5-4.1602-4.1641-6.5-9.8125-6.5-15.699v-7.3984c0-4.0859-3.3125-7.3984-7.3984-7.3984-4.0898 0-7.4023 3.3125-7.4023 7.3984v7.3984c0.011719 9.8086 3.9141 19.215 10.852 26.148 6.9336 6.9375 16.34 10.84 26.148 10.852v7.3984h-14.801c-9.8086 0.011718-19.211 3.9141-26.148 10.852-6.9375 6.9336-10.836 16.34-10.848 26.148v29.598c0 1.9609 0.77734 3.8438 2.1641 5.2344 1.3906 1.3867 3.2734 2.1641 5.2344 2.1641h133.2c1.9609 0 3.8438-0.77734 5.2305-2.1641 1.3867-1.3906 2.168-3.2734 2.168-5.2344v-29.598c-0.011719-9.8086-3.9141-19.215-10.848-26.148-6.9375-6.9375-16.34-10.84-26.152-10.852zm-7.3984-81.395h-76.062c-2.2852 0-4.4336-1.0977-5.7695-2.9531-1.3359-1.8555-1.6992-4.2383-0.97656-6.4102 1.9609-5.8867 5.7266-11.012 10.762-14.641 5.0352-3.6328 11.082-5.5898 17.289-5.5977h39.957c7.8516 0 15.379 3.1211 20.93 8.6719 5.5508 5.5508 8.6719 13.078 8.6719 20.93v14.801l-8.8789-11.844c-1.3984-1.8633-3.5938-2.957-5.9219-2.957zm-59.195 96.195h11.734l4.6992 4.6992-16.434 6.5703zm47.461 0h11.734v11.27l-16.434-6.5703zm-10.465-22.199v11.734l-7.3984 7.3984-7.3984-7.3984v-11.734zm-66.598 44.398c0.019531-4.5742 1.4531-9.0312 4.1016-12.762 2.6484-3.7305 6.3867-6.5508 10.699-8.0781v20.84c-0.003906 2.457 1.2148 4.7539 3.25 6.1328 2.0352 1.375 4.6211 1.6562 6.9023 0.74219l26.848-10.746v26.07h-51.801zm118.39 22.199h-51.797v-26.07l26.848 10.746c2.2812 0.91406 4.8672 0.63281 6.9023-0.74219 2.0312-1.3789 3.25-3.6758 3.25-6.1328v-20.84c4.3125 1.5273 8.0508 4.3477 10.699 8.0781s4.082 8.1875 4.0977 12.762z"/>
  <path d="m560.99 524h-14.797v-7.3984c9.5898-0.027344 18.797-3.7773 25.68-10.461 6.8789-6.6836 10.895-15.777 11.199-25.363v-0.33984c0-0.28125 0.082031-0.54688 0.082031-0.83594v-37c-0.011719-11.77-4.6914-23.055-13.016-31.379s-19.609-13.008-31.383-13.02h-66.559c-3.9258 0-7.6914 1.5586-10.465 4.3359-2.7773 2.7773-4.3359 6.5391-4.3359 10.465 0.011718 11.77 4.6914 23.059 13.016 31.383 8.3242 8.3203 19.609 13.004 31.383 13.016h48.098l18.277 24.367c-0.52344 5.4688-3.0664 10.551-7.1289 14.254-4.0586 3.6992-9.3516 5.7578-14.848 5.7773h-44.398c-5.8867 0-11.535-2.3398-15.699-6.5039-4.1602-4.1602-6.5-9.8086-6.5-15.695v-14.801c0-4.0859-3.3125-7.3984-7.3984-7.3984-4.0898 0-7.4023 3.3125-7.4023 7.3984v14.801c0.011719 9.8086 3.9141 19.211 10.852 26.148 6.9336 6.9375 16.34 10.84 26.148 10.852v7.3984h-14.801c-9.8086 0.011718-19.211 3.9141-26.148 10.848-6.9375 6.9375-10.836 16.34-10.848 26.148v29.602c0 1.9609 0.77734 3.8438 2.1641 5.2305 1.3906 1.3867 3.2734 2.168 5.2344 2.168h133.2c1.9609 0 3.8438-0.78125 5.2305-2.168s2.168-3.2695 2.168-5.2305v-29.602c-0.011719-9.8086-3.9141-19.211-10.848-26.148-6.9375-6.9336-16.34-10.836-26.152-10.848zm-7.3984-81.398h-51.797c-7.8516 0-15.379-3.1172-20.93-8.668-5.5508-5.5508-8.668-13.078-8.668-20.93h66.598-0.003906c7.8516 0 15.379 3.1172 20.93 8.668 5.5508 5.5508 8.6719 13.082 8.6719 20.93v14.801l-8.8789-11.84c-1.3984-1.8633-3.5938-2.9609-5.9219-2.9609zm-22.199 74v12.793c-1.7969 2.25-4.5195 3.5625-7.3984 3.5625-2.8828 0-5.6055-1.3125-7.3984-3.5625v-12.793zm51.797 66.598-118.39-0.003906v-22.199c0-5.8867 2.3398-11.531 6.5039-15.695 4.1641-4.1641 9.8086-6.5039 15.695-6.5039h18.234c4.5156 5.7734 11.438 9.1445 18.766 9.1445s14.25-3.3711 18.766-9.1445h18.23c5.8906 0 11.535 2.3398 15.699 6.5039 4.1641 4.1641 6.5 9.8086 6.5 15.695z"/>
  <path d="m303.54 420.4h17.598l12.633 12.633h-0.003907c1.3906 1.3867 3.2695 2.168 5.2344 2.168h38.359c2.3477 6.6367 7.6992 11.766 14.434 13.828 6.7305 2.0586 14.039 0.80469 19.695-3.3828 5.6602-4.1836 9-10.805 9-17.844 0-7.0391-3.3398-13.664-9-17.848-5.6562-4.1875-12.965-5.4414-19.695-3.3789-6.7344 2.0586-12.086 7.1875-14.434 13.824h-35.297l-12.633-12.633v0.003906c-1.3867-1.3906-3.2695-2.168-5.2305-2.168h-13.051c2.8008-7.1133 4.5781-14.586 5.2734-22.199h22.578c0.43359-0.046875 0.86328-0.13281 1.2773-0.26172 1.9648 5.8555 6.2891 10.621 11.926 13.141 5.6406 2.5156 12.074 2.5547 17.746 0.10938 5.668-2.4492 10.051-7.1602 12.086-12.988h16.16c4.0898 0 7.4023-3.3125 7.4023-7.4023 0-4.0859-3.3125-7.3984-7.4023-7.3984h-16.16c-2.0352-5.8281-6.418-10.543-12.086-12.988-5.6719-2.4492-12.105-2.4062-17.746 0.10938-5.6367 2.5195-9.9609 7.2812-11.926 13.137-0.41406-0.125-0.84375-0.21484-1.2773-0.25781h-22.578c-0.9375-10.328-3.8594-20.379-8.6055-29.598h16.383c1.4609-0.003906 2.8906-0.4375 4.1055-1.2461l20.312-13.555h13.922c2.3438 6.6367 7.6992 11.766 14.43 13.828 6.7305 2.0586 14.039 0.80469 19.699-3.3789 5.6602-4.1875 9-10.809 9-17.848 0-7.0391-3.3398-13.66-9-17.848s-12.969-5.4414-19.699-3.3789c-6.7305 2.0586-12.086 7.1875-14.43 13.824h-16.141c-1.4609 0.003906-2.8906 0.4375-4.1055 1.2461l-20.312 13.555h-23.836c-14.641-17.766-36.121-28.496-59.117-29.543-23-1.043-45.363 7.7031-61.555 24.066-16.191 16.363-24.695 38.82-23.406 61.805 1.2891 22.984 12.25 44.352 30.168 58.801 17.922 14.453 41.121 20.641 63.859 17.035 22.734-3.6094 42.883-16.676 55.445-35.969zm94.656 0c2.9961 0 5.6914 1.8047 6.8359 4.5703 1.1484 2.7656 0.51562 5.9453-1.6016 8.0625-2.1172 2.1172-5.3008 2.75-8.0664 1.6055-2.7617-1.1445-4.5664-3.8438-4.5664-6.8359 0-4.0898 3.3125-7.4023 7.3984-7.4023zm-37-51.797h0.003906c2.9922 0 5.6914 1.8047 6.8359 4.5664 1.1445 2.7656 0.51172 5.9492-1.6055 8.0664-2.1172 2.1172-5.2969 2.75-8.0625 1.6016-2.7656-1.1445-4.5703-3.8398-4.5703-6.8359 0-4.0859 3.3164-7.3984 7.4023-7.3984zm22.199-59.199h0.003906c2.9922 0 5.6914 1.8047 6.8359 4.5703s0.51172 5.9453-1.6055 8.0625c-2.1172 2.1172-5.2969 2.75-8.0625 1.6055-2.7656-1.1445-4.5703-3.8438-4.5703-6.8359 0-4.0859 3.3125-7.4023 7.4023-7.4023zm-214.59 66.598c0-17.66 7.0195-34.602 19.508-47.09 12.488-12.488 29.43-19.508 47.09-19.508 17.664 0 34.602 7.0195 47.094 19.508 12.488 12.488 19.504 29.43 19.504 47.09 0 17.664-7.0156 34.602-19.504 47.094-12.492 12.488-29.43 19.504-47.094 19.504-17.656-0.019531-34.582-7.043-47.07-19.527-12.484-12.484-19.508-29.414-19.527-47.07z"/>
  <path d="m403.43 156.18c-2.9062-2.8047-7.5195-2.7656-10.375 0.089843-2.8555 2.8516-2.8945 7.4688-0.089844 10.371l9.5664 9.5703h-167.13c-4.0859 0-7.3984 3.3125-7.3984 7.3984v88.797c0 4.0859 3.3125 7.3984 7.3984 7.3984s7.4023-3.3125 7.4023-7.3984v-81.398h159.73l-9.5664 9.5703c-1.4258 1.3789-2.2422 3.2734-2.2578 5.2578-0.019532 1.9844 0.76172 3.8906 2.168 5.2969 1.4023 1.4023 3.3086 2.1836 5.2969 2.1641 1.9844-0.015625 3.8789-0.82812 5.2578-2.2578l22.199-22.199c2.8867-2.8906 2.8867-7.5742 0-10.461z"/>
  <path d="m403.43 540.96c-2.9062-2.8047-7.5195-2.7656-10.375 0.089844-2.8555 2.8516-2.8945 7.4688-0.089844 10.371l9.5664 9.5664h-159.73v-81.395c0-4.0859-3.3164-7.3984-7.4023-7.3984s-7.3984 3.3125-7.3984 7.3984v88.797c0 1.9609 0.77734 3.8438 2.168 5.2305 1.3867 1.3906 3.2695 2.168 5.2305 2.168h167.13l-9.5664 9.5664c-1.4258 1.3789-2.2422 3.2734-2.2578 5.2617-0.019532 1.9844 0.76172 3.8906 2.168 5.2969 1.4023 1.4023 3.3086 2.1836 5.2969 2.1641 1.9844-0.015625 3.8789-0.82812 5.2578-2.2578l22.199-22.199c2.8867-2.8906 2.8867-7.5742 0-10.465z"/>
  <path d="m229.06 419.94c-11.289-1.6328-21.52-7.5469-28.566-16.52-7.0469-8.9688-10.371-20.309-9.2812-31.664 1.0898-11.355 6.5117-21.855 15.133-29.324 8.625-7.4648 19.793-11.328 31.188-10.781s22.141 5.457 30.012 13.715c7.8711 8.2578 12.262 19.227 12.262 30.633 0 2.1289-0.15234 4.2539-0.44922 6.3594-0.55859 4.0352 2.25 7.7617 6.2852 8.3359 4.0352 0.57422 7.7734-2.2188 8.3633-6.25 2.2383-15.539-1.7891-31.332-11.195-43.902-9.4023-12.57-23.418-20.887-38.953-23.125-15.539-2.2422-31.332 1.7852-43.902 11.188-12.57 9.4062-20.891 23.418-23.133 38.953-2.2422 15.539 1.7812 31.332 11.184 43.902 9.4023 12.574 23.414 20.895 38.953 23.141 4.0469 0.57813 7.8008-2.2344 8.3789-6.2812 0.58203-4.0469-2.2305-7.8008-6.2773-8.3789z"/>
  <path d="m267.12 407.08c-3.6602 3.7461-7.957 6.8164-12.688 9.0625-3.0977 1.5-4.7539 4.9336-3.9961 8.2891 0.75781 3.3555 3.7305 5.7461 7.168 5.7695 1.1016-0.003906 2.1875-0.25781 3.1758-0.73828 6.3047-2.9922 12.031-7.0742 16.914-12.062 2.8633-2.918 2.8125-7.6055-0.10547-10.465-2.9219-2.8633-7.6055-2.8125-10.469 0.10547z"/>
 </g>
</svg>
