<?xml version="1.0" encoding="UTF-8"?>
<svg width="752" height="752" version="1.1" viewBox="0 0 752 752" xmlns="http://www.w3.org/2000/svg">
 <defs>
  <clipPath id="b">
   <path d="m139.21 176h436.79v436.79h-436.79z"/>
  </clipPath>
  <clipPath id="a">
   <path d="m335 139.21h277.79v277.79h-277.79z"/>
  </clipPath>
 </defs>
 <path d="m455.78 264.83c-44.301-33.59-102.66-42.289-154.83-23.078-52.168 19.215-90.949 63.688-102.88 117.99-11.93 54.301 4.6367 110.93 43.949 150.25 39.309 39.309 95.945 55.875 150.25 43.945 54.297-11.93 98.773-50.707 117.99-102.88 19.211-52.168 10.512-110.53-23.078-154.83l-10.52 10.52c29.793 40.449 37.035 93.246 19.238 140.23-17.797 46.977-58.211 81.723-107.33 92.273-49.117 10.555-100.23-4.5273-135.75-40.051-35.523-35.523-50.605-86.641-40.055-135.76 10.555-49.113 45.297-89.527 92.277-107.32 46.977-17.801 99.777-10.555 140.23 19.238z" fill="#fff"/>
 <g clip-path="url(#b)">
  <path d="m357.5 612.79c53.949 0.039062 106-19.918 146.1-56.016 40.098-36.098 65.395-85.773 71.004-139.43 5.6133-53.66-8.8633-107.5-40.629-151.11l-3.6289 0.72656c-4.4648 0.89453-9.0742 0.73828-13.469-0.45312l-0.68359 0.68359 0.003906-0.003906c32.586 40.617 48.371 92.172 44.109 144.07-4.2617 51.895-28.246 100.19-67.023 134.94-38.773 34.754-89.391 53.332-141.45 51.91-52.051-1.4219-101.58-22.734-138.4-59.555-36.82-36.82-58.133-86.348-59.555-138.4-1.4219-52.055 17.152-102.67 51.91-141.45 34.754-38.777 83.043-62.762 134.94-67.023 51.895-4.2617 103.45 11.523 144.07 44.109l0.67969-0.67969v-0.003906c-1.1797-4.3984-1.332-9.0117-0.44531-13.477l0.72266-3.6133v-0.003906c-37.281-27.102-82.191-41.699-128.28-41.707-46.094-0.007812-91.008 14.578-128.3 41.668-37.289 27.09-65.047 65.293-79.293 109.13-14.242 43.836-14.238 91.059 0.007813 134.89 14.246 43.836 42.008 82.035 79.301 109.12 37.297 27.086 82.211 41.672 128.3 41.66z" fill="#fff"/>
 </g>
 <g clip-path="url(#a)">
  <path d="m573.48 140.96c-2.8008-1.4961-6.0078-2.0508-9.1484-1.5859-3.1406 0.46484-6.0508 1.9297-8.293 4.1758l-47.211 47.211v-0.003906c-2.0703 2.0703-3.4805 4.707-4.0508 7.5781l-5.2148 26.23v0.003906c-0.95703 4.8477 0.57031 9.8516 4.0703 13.336l-136.59 136.59 0.003906-0.003907c-6.375-3.0547-13.824-2.9023-20.07 0.41016-6.2461 3.3086-10.547 9.3867-11.598 16.379-1.0508 6.9922 1.2812 14.062 6.2812 19.062 4.9961 5 12.07 7.3281 19.062 6.2812 6.9883-1.0508 13.07-5.3555 16.379-11.602 3.3125-6.2461 3.4609-13.691 0.40625-20.066l136.58-136.58v0.003906c3.4844 3.5039 8.4961 5.0312 13.344 4.0625l26.23-5.2148c2.8711-0.57031 5.5078-1.9805 7.5781-4.0508l47.211-47.211c3.0156-3.0117 4.5859-7.1797 4.3086-11.434-0.28125-4.2539-2.3789-8.1797-5.7617-10.773-3.3789-2.5977-7.7188-3.6055-11.898-2.7734l-17.582 3.4961 3.4961-17.582 0.003907 0.003907c0.61719-3.1133 0.21875-6.3477-1.1367-9.2148-1.3594-2.8711-3.6055-5.2305-6.4023-6.7266zm-215.98 260.94c-2.9961 0-5.6914-1.8008-6.8398-4.5664-1.1445-2.7656-0.51172-5.9492 1.6055-8.0625 2.1172-2.1172 5.3008-2.75 8.0625-1.6055 2.7656 1.1445 4.5703 3.8438 4.5703 6.8359 0 1.9648-0.78125 3.8438-2.168 5.2344-1.3867 1.3867-3.2695 2.1641-5.2305 2.1641zm156.58-174.45 5.2148-26.23 47.211-47.207-5.2148 26.23zm83.91-41.953-47.211 47.211-26.23 5.2148 47.211-47.211z" fill="#fff"/>
 </g>
 <path d="m357.5 350.1c3.8672 0.015626 7.7227 0.53516 11.457 1.5469l11.648-11.648-0.003906 0.003906c-17-7.2109-36.391-6.0781-52.434 3.0664-16.047 9.1445-26.906 25.25-29.367 43.551-2.4609 18.301 3.7539 36.703 16.812 49.762 13.059 13.059 31.461 19.277 49.762 16.816 18.305-2.4609 34.41-13.32 43.551-29.367 9.1445-16.043 10.281-35.434 3.0703-52.434l-11.648 11.648v-0.003906c3.207 12.02 1.2188 24.832-5.4766 35.316s-17.484 17.676-29.734 19.824c-12.254 2.1484-24.844-0.94531-34.707-8.5273-9.8633-7.582-16.09-18.953-17.164-31.348-1.0742-12.391 3.1016-24.668 11.512-33.832 8.4102-9.168 20.281-14.383 32.723-14.375z" fill="#fff"/>
 <path d="m415.98 304.63c-29.957-19.52-67.656-22.863-100.58-8.9219-32.926 13.938-56.766 43.336-63.602 78.43-6.8398 35.094 4.2148 71.289 29.5 96.57 25.281 25.281 61.477 36.34 96.57 29.5 35.094-6.8398 64.492-30.68 78.43-63.602 13.938-32.926 10.594-70.629-8.9219-100.59l-10.699 10.699c15.723 26.039 17.652 58.141 5.1602 85.871-12.492 27.734-37.812 47.559-67.73 53.035-29.922 5.4805-60.621-4.0898-82.129-25.598-21.508-21.508-31.078-52.211-25.598-82.129 5.4766-29.918 25.301-55.238 53.035-67.73 27.73-12.492 59.832-10.562 85.871 5.1602z" fill="#fff"/>
</svg>
