<?xml version="1.0" encoding="UTF-8"?>
<svg width="752" height="752" version="1.1" viewBox="0 0 752 752" xmlns="http://www.w3.org/2000/svg">
 <g>
  <path d="m435.2 154.01h-29.598c-79.176 0-146.88 56.977-160.39 135.04-54.02 26.547-91.203 82.043-91.203 146.14 0 89.723 73.07 162.79 162.79 162.79h29.598c80.285 0 147.16-58.457 160.39-134.95 55.871-27.379 91.203-84.078 91.203-146.23 0-89.723-73.07-162.79-162.79-162.79zm138.65 111h-13.875c-3.4219-10.266-7.9531-20.164-13.41-29.598h12.211c6.1016 9.2461 11.188 19.234 15.074 29.598zm-5.6445 59.195h14.801c-0.46094 9.9883-1.9414 19.887-4.4414 29.598h-14.336c2.2227-9.7109 3.5156-19.609 3.9766-29.598zm0-14.801c-0.46094-9.9883-1.8516-19.887-4.0703-29.598h14.336c2.4961 9.7109 3.9766 19.609 4.5312 29.598zm-20.625-88.793h-10.73c-10.82-14.707-23.957-27.473-39.035-37.832 19.059 8.8789 36.074 21.828 49.766 37.832zm-258.53 4.9922 12.949 12.949v19.055h14.801v-22.199c0-1.9414-0.73828-3.8867-2.1289-5.2734l-15.816-15.816c2.9609-3.1445 6.1055-6.1055 9.4336-8.9727 2.7734-2.4062 5.6406-4.7188 8.6016-6.9375v7.3984c0 1.9414 0.73828 3.8867 2.1289 5.2734l14.801 14.801c-5.2734 11.098-0.64844 24.328 10.453 29.598 11.098 5.2734 24.328 0.64844 29.598-10.453 5.2734-11.098 0.64844-24.328-10.453-29.598-6.0117-2.8672-13.133-2.8672-19.148 0l-12.672-12.668v-14.152c18.129-10.453 38.293-17.02 59.199-19.055v65.855c0 1.9414 0.73828 3.8867 2.1289 5.2734l44.398 44.398 10.453-10.453-42.18-42.27v-63.547c20.258 0 40.234 4.1641 58.734 12.211l-12.211 12.211c-1.3867 1.3867-2.1289 3.2383-2.1289 5.2734v8.6953c-11.562 4.0703-17.574 16.742-13.504 28.305 4.0703 11.562 16.742 17.574 28.305 13.504 11.562-4.0703 17.574-16.742 13.504-28.305-2.2188-6.2891-7.2148-11.285-13.504-13.504v-5.6406l13.504-13.504c20.441 11.562 37.832 27.84 50.781 47.449l-19.887-0.003906c-1.9414 0-3.8867 0.73828-5.2734 2.1289l-44.398 44.398 10.453 10.453 42.27-42.27h25.438c10.453 20.625 15.91 43.473 15.816 66.598 0 7.3984-0.55469 14.891-1.6641 22.199h-10.082l-20.07-20.07c5.2734-11.098 0.64844-24.328-10.453-29.598-11.098-5.2734-24.328-0.64844-29.598 10.453-5.2734 11.098-0.64844 24.328 10.453 29.598 6.0117 2.8672 13.133 2.8672 19.148 0l22.199 22.199c1.3867 1.3867 3.2383 2.1289 5.2734 2.1289h10.176c-6.7539 26.363-20.625 50.227-40.234 69.094-6.2031-83.902-76.594-150.41-162.25-150.41h-29.598c-18.777 0-37.367 3.2383-55.035 9.6211 4.9023-20.535 14.242-39.867 27.285-56.426zm64.746 2.4062c4.0703 0 7.3984 3.3281 7.3984 7.3984s-3.3281 7.3984-7.3984 7.3984c-4.0703 0-7.3984-3.3281-7.3984-7.3984s3.332-7.3984 7.3984-7.3984zm111 0c0 4.0703-3.3281 7.3984-7.3984 7.3984-4.0703 0-7.3984-3.3281-7.3984-7.3984 0-4.0703 3.3281-7.3984 7.3984-7.3984 4.0703 0 7.3984 3.3281 7.3984 7.3984zm37 88.797c-4.0703 0-7.3984-3.3281-7.3984-7.3984s3.3281-7.3984 7.3984-7.3984 7.3984 3.3281 7.3984 7.3984c0 4.0664-3.3281 7.3984-7.3984 7.3984zm-92.773-15.633c19.055 8.9727 35.98 21.828 49.762 37.832h-10.73c-10.82-14.707-23.957-27.473-39.031-37.832zm60.953 52.629c6.1055 9.25 11.191 19.238 15.078 29.598h-13.875c-3.4219-10.266-7.9531-20.164-13.41-29.598zm9.4375 74c-0.46094-9.9883-1.8516-19.887-4.0703-29.598h14.336c2.4961 9.7109 3.9766 19.609 4.5312 29.598zm-8.2344 59.195h13.875c-3.8867 10.359-8.9727 20.348-15.078 29.598h-12.211c5.4609-9.4336 9.8984-19.328 13.414-29.598zm4.1641-14.797c2.2188-9.7109 3.6055-19.609 4.0703-29.598h14.801c-0.46094 9.9883-2.0352 19.887-4.5312 29.598zm-306.54-37c0-81.582 66.414-147.99 147.99-147.99 81.582 0 147.99 66.414 147.99 147.99 0 81.582-66.414 147.99-147.99 147.99s-147.99-66.41-147.99-147.99zm240.21 134.03c14.984-10.359 28.211-23.125 39.035-37.832h10.73c-13.691 16.004-30.711 28.953-49.766 37.832zm99.895-124.04c0.09375-0.92578 0.09375-1.7578 0.18359-2.6836 10.543-8.6016 19.887-18.59 27.934-29.508h10.637c-11.004 12.859-24.141 23.773-38.754 32.191zm50.688-48.098c-0.27734 0.37109-0.55469 0.73828-0.73828 1.1094h-12.117c5.457-9.4336 9.8984-19.332 13.32-29.598h13.875c-3.793 9.9883-8.6055 19.516-14.34 28.488z"/>
  <path d="m316.8 302c-73.441 0-133.2 59.754-133.2 133.2 0 73.441 59.754 133.2 133.2 133.2 73.441 0 133.2-59.754 133.2-133.2 0-73.441-59.754-133.2-133.2-133.2zm0 251.59c-65.395 0-118.39-53-118.39-118.39s53-118.39 118.39-118.39c65.395 0 118.39 53 118.39 118.39-0.09375 65.395-53 118.3-118.39 118.39z"/>
  <path d="m228.01 435.2c0.09375-49.117 39.867-88.891 88.98-88.797 6.8438 0 13.688 0.83203 20.348 2.4062l3.4219-14.43c-55.773-13.227-111.55 21.273-124.77 76.957-9.0664 38.293 4.3477 78.438 34.594 103.6l9.4336-11.379c-20.258-16.926-32.004-41.902-32.004-68.355z"/>
  <path d="m388.49 360.46-10.266 10.637c35.332 33.945 36.535 90.184 2.4961 125.61-25.344 26.363-64.379 34.5-98.137 20.441l-5.7344 13.688c52.816 22.016 113.49-2.9609 135.51-55.773 16.555-39.492 7.0273-85-23.867-114.6z"/>
  <path d="m316.8 494.4c-32.652 0-59.199-26.547-59.199-59.199 0-17.852 8.0469-34.777 22.016-46.062l-9.3438-11.469c-31.82 25.715-36.723 72.238-11.008 104.06 14.062 17.387 35.148 27.469 57.535 27.469z"/>
  <path d="m390.8 435.2c0-40.883-33.207-73.996-74.09-73.996-5.457 0-11.008 0.64844-16.281 1.8516l3.2383 14.43c31.91-7.3086 63.637 12.672 70.852 44.582 4.8086 20.996-2.2188 42.918-18.223 57.254l9.8984 11.008c15.633-14.062 24.605-34.039 24.605-55.129z"/>
  <path d="m316.8 405.6c6.3828 0 12.672 2.0352 17.758 5.918l8.8789-11.84c-19.609-14.707-47.449-10.73-62.156 8.8789-9.6211 12.766-11.562 29.691-5.1797 44.398l13.598-5.918c-6.5664-14.984 0.37109-32.465 15.355-38.941 3.6992-1.6641 7.6758-2.4961 11.746-2.4961z"/>
  <path d="m361.2 435.2h-14.801c0 16.371-13.32 29.598-29.598 29.598-4.0703 0-8.0469-0.83203-11.84-2.4961l-5.918 13.598c22.477 9.8047 48.652-0.46094 58.457-22.938 2.4023-5.6445 3.6992-11.656 3.6992-17.762z"/>
 </g>
</svg>
