<?xml version="1.0" encoding="UTF-8"?>
<svg width="752" height="752" version="1.1" viewBox="0 0 752 752" xmlns="http://www.w3.org/2000/svg">
 <g fill="black">
  <path d="m597.99 597.99v-14.801h-22.074v-36.996c0-1.9648-0.77734-3.8438-2.168-5.2344-1.3867-1.3867-3.2695-2.168-5.2305-2.168h-59.199c-4.0859 0-7.3984 3.3164-7.3984 7.4023v37l-88.922-0.003906v-118.39c0-1.9609-0.78125-3.8438-2.168-5.2305-1.3867-1.3867-3.2695-2.168-5.2305-2.168h-59.199c-4.0859 0-7.3984 3.3125-7.3984 7.3984v118.39h-88.797v-251.59c0-1.9609-0.78125-3.8438-2.168-5.2305-1.3867-1.3867-3.2695-2.168-5.2305-2.168h-59.199c-4.0859 0-7.3984 3.3125-7.3984 7.3984v251.59h-22.199v14.801zm-81.27-44.398h44.398v29.598h-44.398zm-162.92-81.395h44.398v110.99h-44.398zm-162.79-133.2h44.398v244.19h-44.398z"/>
  <path d="m376 287.2c-15.695 0.019531-30.742 6.2617-41.84 17.359s-17.34 26.145-17.355 41.84c0.027343 4.9688 0.69141 9.9141 1.9688 14.719-4.6992 17.758-0.88672 36.695 10.32 51.25 11.207 14.555 28.535 23.086 46.906 23.086s35.703-8.5312 46.91-23.086c11.203-14.555 15.02-33.492 10.32-51.25 1.2773-4.8047 1.9375-9.75 1.9688-14.719-0.019531-15.695-6.2617-30.742-17.359-41.84s-26.145-17.34-41.84-17.359zm0 14.801c9.8516 0.019532 19.414 3.3086 27.191 9.3555 7.7773 6.043 13.324 14.5 15.773 24.039-11.141-11.863-26.691-18.594-42.965-18.594s-31.82 6.7305-42.961 18.594c2.4492-9.5391 7.9961-17.996 15.773-24.039 7.7773-6.0469 17.34-9.3359 27.188-9.3555zm0 118.39c-11.773 0-23.066-4.6758-31.395-13.004-8.3242-8.3242-13.004-19.617-13.004-31.395 0-11.773 4.6797-23.066 13.004-31.395 8.3281-8.3242 19.621-13.004 31.395-13.004 11.777 0 23.07 4.6797 31.395 13.004 8.3281 8.3281 13.004 19.621 13.004 31.395-0.011719 11.773-4.6914 23.059-13.016 31.383-8.3242 8.3242-19.609 13.004-31.383 13.016z"/>
  <path d="m372.3 361.2h7.4023c0.98047 0 1.9219 0.39062 2.6133 1.082 0.69531 0.69531 1.0859 1.6367 1.0859 2.6172h14.801-0.003906c0-4.2656-1.4727-8.3945-4.168-11.699-2.6992-3.3008-6.4531-5.5703-10.629-6.4219v-7.7773h-14.801v7.7773c-6.0391 1.2383-11.062 5.4023-13.398 11.105-2.3398 5.7031-1.6836 12.195 1.75 17.312 3.4297 5.1211 9.1836 8.1953 15.348 8.2031h7.4023c2.043 0 3.6992 1.6562 3.6992 3.6992 0 2.043-1.6562 3.6992-3.6992 3.6992h-7.4023c-2.043 0-3.6992-1.6562-3.6992-3.6992h-14.801c0.003907 4.2617 1.4766 8.3945 4.1719 11.695 2.6992 3.3047 6.4531 5.5742 10.629 6.4258v7.7773h14.801v-7.7773c6.0352-1.2383 11.059-5.4023 13.398-11.105 2.3359-5.7031 1.6797-12.195-1.75-17.316-3.4297-5.1172-9.1875-8.1914-15.348-8.1992h-7.4023c-2.043 0-3.6992-1.6562-3.6992-3.6992 0-2.043 1.6562-3.6992 3.6992-3.6992z"/>
  <path d="m213.21 302c15.699 0 30.758-6.2383 41.859-17.34 11.102-11.102 17.34-26.156 17.34-41.855 0-15.703-6.2383-30.758-17.34-41.859-11.102-11.102-26.16-17.34-41.859-17.34s-30.758 6.2383-41.859 17.34c-11.102 11.102-17.336 26.156-17.336 41.859 0.015625 15.691 6.2578 30.738 17.355 41.836 11.098 11.102 26.145 17.344 41.84 17.359zm0-103.59c11.777 0 23.07 4.6758 31.395 13.004 8.3281 8.3242 13.004 19.617 13.004 31.395 0 11.773-4.6758 23.066-13.004 31.391-8.3242 8.3281-19.617 13.004-31.395 13.004-11.773 0-23.066-4.6758-31.395-13.004-8.3242-8.3242-13.004-19.617-13.004-31.391 0.011718-11.773 4.6953-23.059 13.02-31.383s19.609-13.004 31.379-13.016z"/>
  <path d="m216.91 257.61h-7.3984c-2.043 0-3.6992-1.6562-3.6992-3.6992h-14.801c0 4.2617 1.4766 8.3945 4.1719 11.699 2.6953 3.3008 6.4531 5.5703 10.629 6.4219v7.7773h14.801v-7.7773c6.0352-1.2383 11.059-5.4023 13.398-11.105 2.3359-5.7031 1.6797-12.195-1.75-17.312-3.4297-5.1211-9.1875-8.1953-15.352-8.2031h-7.3984c-2.043 0-3.6992-1.6562-3.6992-3.6992s1.6562-3.6992 3.6992-3.6992h7.3984c0.98438 0 1.9258 0.39063 2.6172 1.082 0.69531 0.69531 1.0859 1.6367 1.0859 2.6172h14.801-0.003906c0-4.2617-1.4727-8.3945-4.1719-11.699-2.6953-3.3008-6.4492-5.5703-10.625-6.4219v-7.7773h-14.801v7.7773c-6.0391 1.2383-11.062 5.4023-13.398 11.105-2.3398 5.7031-1.6836 12.195 1.7461 17.312 3.4336 5.1211 9.1875 8.1953 15.352 8.2031h7.3984c2.0469 0 3.7031 1.6562 3.7031 3.6992s-1.6562 3.6992-3.7031 3.6992z"/>
  <path d="m538.79 516.6c18.348 0.070313 35.68-8.4023 46.898-22.918 11.215-14.52 15.035-33.43 10.332-51.164 2.625-9.6914 2.625-19.906 0-29.598 1.2773-4.8008 1.9375-9.7461 1.9688-14.719 0-21.148-11.281-40.691-29.598-51.266-18.316-10.574-40.883-10.574-59.199 0-18.316 10.574-29.598 30.117-29.598 51.266 0.03125 4.9727 0.69141 9.918 1.9688 14.719-2.625 9.6914-2.625 19.906 0 29.598-4.7031 17.734-0.88281 36.645 10.332 51.164 11.219 14.516 28.551 22.988 46.895 22.918zm0-162.79v-0.003907c9.8516 0.019531 19.414 3.3086 27.191 9.3555 7.7773 6.043 13.324 14.5 15.773 24.039-11.141-11.863-26.688-18.594-42.965-18.594-16.273 0-31.82 6.7305-42.961 18.594 2.4492-9.5391 7.9961-17.996 15.773-24.039 7.7773-6.0469 17.34-9.3359 27.188-9.3555zm0 29.598c9.8516 0.019531 19.414 3.3086 27.191 9.3516 7.7773 6.0469 13.324 14.5 15.773 24.043-11.141-11.863-26.688-18.594-42.965-18.594-16.273 0-31.82 6.7305-42.961 18.594 2.4492-9.543 7.9961-17.996 15.773-24.043 7.7773-6.043 17.34-9.332 27.188-9.3516zm0 29.598c11.777 0 23.07 4.6758 31.395 13.004 8.3281 8.3281 13.004 19.617 13.004 31.395 0 11.773-4.6758 23.066-13.004 31.395-8.3242 8.3242-19.617 13.004-31.395 13.004-11.773 0-23.066-4.6797-31.391-13.004-8.3281-8.3281-13.004-19.621-13.004-31.395 0.011718-11.773 4.6914-23.059 13.016-31.383 8.3242-8.3242 19.609-13.004 31.379-13.016z"/>
  <path d="m542.5 472.2h-7.4023c-2.043 0-3.6992-1.6562-3.6992-3.7031h-14.797c0 4.2656 1.4727 8.3984 4.168 11.699 2.6992 3.3008 6.4531 5.5703 10.629 6.4258v7.7773h14.801v-7.7773c6.0352-1.2383 11.062-5.4023 13.398-11.105 2.3398-5.7031 1.6836-12.195-1.75-17.316-3.4297-5.1211-9.1875-8.1953-15.348-8.1992h-7.4023c-2.043 0-3.6992-1.6562-3.6992-3.7031 0-2.043 1.6562-3.6992 3.6992-3.6992h7.4023c0.98047 0 1.9219 0.39062 2.6133 1.0859 0.69531 0.69141 1.0859 1.6328 1.0859 2.6133h14.801-0.003906c0-4.2617-1.4727-8.3945-4.168-11.695-2.6992-3.3047-6.4531-5.5703-10.629-6.4258v-7.7773h-14.801v7.7773c-6.0352 1.2383-11.062 5.4023-13.398 11.105-2.3398 5.7031-1.6836 12.195 1.75 17.316 3.4297 5.1211 9.1875 8.1953 15.348 8.1992h7.4023c2.043 0 3.6992 1.6562 3.6992 3.6992 0 2.0469-1.6562 3.7031-3.6992 3.7031z"/>
  <path d="m464.8 228.01v-44.398c0-1.9609-0.77734-3.8438-2.168-5.2344-1.3867-1.3867-3.2695-2.1641-5.2305-2.1641h-59.199c-4.0859 0-7.3984 3.3125-7.3984 7.3984v44.398c0 1.9609 0.78125 3.8438 2.168 5.2305 1.3867 1.3906 3.2695 2.168 5.2305 2.168h59.199c1.9609 0 3.8438-0.77734 5.2305-2.168 1.3906-1.3867 2.168-3.2695 2.168-5.2305zm-14.801-7.3984h-44.395v-29.602h44.398z"/>
  <path d="m487 183.61h29.598v14.801h-29.598z"/>
  <path d="m487 213.21h29.598v14.801h-29.598z"/>
  <path d="m538.79 213.21v29.602c0 1.9609 0.78125 3.8438 2.168 5.2305 1.3906 1.3867 3.2695 2.168 5.2344 2.168h44.398c1.9609 0 3.8438-0.78125 5.2305-2.168 1.3867-1.3867 2.168-3.2695 2.168-5.2305v-29.602c-0.015626-4.5352-1.4219-8.9531-4.0273-12.668-2.6055-3.7109-6.2852-6.5352-10.543-8.0938 4.4141-4.0586 6.9961-9.7305 7.1641-15.723 0.16406-5.9922-2.0977-11.797-6.2773-16.094-4.1797-4.2969-9.9219-6.7227-15.914-6.7227-5.9961 0-11.734 2.4258-15.914 6.7227-4.1797 4.2969-6.4453 10.102-6.2773 16.094 0.16797 5.9922 2.75 11.664 7.1602 15.723-4.2578 1.5586-7.9375 4.3828-10.543 8.0938-2.6016 3.7148-4.0078 8.1328-4.0273 12.668zm29.598-44.398h0.003906c2.9922 0 5.6914 1.8047 6.8359 4.5703s0.51172 5.9453-1.6055 8.0625c-2.1172 2.1172-5.2969 2.75-8.0625 1.6055s-4.5703-3.8438-4.5703-6.8359c0-4.0898 3.3164-7.4023 7.4023-7.4023zm-14.801 44.398h0.003906c0-4.0859 3.3125-7.3984 7.3984-7.3984h14.801c1.9648 0 3.8438 0.77734 5.2344 2.168 1.3867 1.3867 2.1641 3.2695 2.1641 5.2305v22.199h-29.598z"/>
 </g>
</svg>
